<svg xmlns="http://www.w3.org/2000/svg" xmlns:xlink="http://www.w3.org/1999/xlink" width="131" height="40" viewBox="0 0 131 40"><defs><path id="skpda" d="M403.78 377.96c0 .12 0 .22.02.33l.02.46v19.02c0 .44-.02.76-.07.99-.06.28-.19.5-.38.65-.18.14-.43.22-.77.24a18.64 18.64 0 0 1-2.2 0 1.66 1.66 0 0 1-.78-.2c-.16-.1-.36-.3-.41-.7a7.78 7.78 0 0 1-.05-.98v-17.74h-2.54v-2.6l.1-.1c.3-.28.68-.55 1.11-.8.38-.18.8-.35 1.3-.52a5.86 5.86 0 0 1 1.84-.26c.9 0 1.6.26 2.05.76.43.49.69.97.76 1.45m19.78 11.26c.44.78.66 1.91.66 3.37 0 1.34-.12 2.47-.36 3.37a5.43 5.43 0 0 1-1.42 2.36c-.7.7-1.6 1.22-2.7 1.56-.89.28-2.16.42-3.8.42-.28 0-.58 0-.9-.02-.85 0-1.84-.08-2.95-.24-1.1-.16-2.33-.44-3.65-.82a4.14 4.14 0 0 1-1.72-.79c-.33-.33-.35-.87-.07-1.65.19-.49.34-.86.48-1.13.16-.32.34-.54.57-.66.21-.12.48-.16.8-.13.25.04.59.1 1.01.19 2.43.6 4.49.93 6.12.98 1.58.04 2.65-.15 3.17-.57.5-.44.8-1.1.89-1.98.05-.47.05-.87 0-1.2a3.52 3.52 0 0 0-.2-.75c-.09-.16-.21-.34-.34-.5a1.56 1.56 0 0 0-.52-.38 5.39 5.39 0 0 0-.99-.35c-.43-.11-.96-.23-1.6-.35a34.37 34.37 0 0 0-3.1-.56c-3.7-.61-5.76-2.3-6.13-5.02-.36-2.66.15-4.79 1.52-6.32 1.38-1.53 3.39-2.27 5.98-2.21 1.26.03 2.53.11 3.78.24 1.24.13 2.5.35 3.74.65l.57.13c.7.25.86.7.88 1.04.01.39-.06.85-.21 1.42l-.23.77c-.07.23-.15.42-.26.56a.82.82 0 0 1-.6.32c-.2.02-.47-.02-.83-.12a29.27 29.27 0 0 0-5.94-.91c-1.75-.13-2.97.11-3.65.73a2.62 2.62 0 0 0-.8 2.43c.16.94.72 1.52 1.73 1.75 1.83.41 3.54.76 5.1 1.06 1.59.3 2.95.76 4.06 1.4.84.5 1.48 1.14 1.91 1.91m13.51 6.65a6.36 6.36 0 0 0 2.88-.62 5.58 5.58 0 0 0 1.75-1.7c.51-.76.9-1.65 1.15-2.67.26-1.07.37-2.55.35-4.4a9.85 9.85 0 0 0-1.23-4.8c-.57-.98-1.54-1.58-2.98-1.83a8.07 8.07 0 0 0-4.2.64c-.73.3-1.46.72-2.18 1.27v13.61a18.83 18.83 0 0 0 4.46.5s-.67 0 0 0zm9.6-15.1c.9 1.9 1.36 4.21 1.36 6.85 0 1.73-.25 3.36-.76 4.85a13.2 13.2 0 0 1-1.97 3.83 7.4 7.4 0 0 1-2.57 2.28c-.9.45-1.68.75-2.35.9-1.03.27-2.18.4-3.4.4a20.3 20.3 0 0 1-2.62-.13c-.55-.02-1.13-.32-1.75-.91v7.08c0 .44-.02.76-.07.99-.06.28-.19.5-.38.64-.18.15-.43.23-.77.25a19.48 19.48 0 0 1-2.2 0 1.67 1.67 0 0 1-.78-.2.95.95 0 0 1-.43-.67 5.31 5.31 0 0 1-.07-1v-25.77h-2.54v-2.6l.1-.1c.3-.28.68-.54 1.1-.79.38-.19.82-.36 1.31-.53a5.84 5.84 0 0 1 1.83-.26c.91 0 1.6.26 2.05.77.31.34.53.68.65 1.01.7-.45 1.39-.81 2.04-1.1 1.27-.5 2.7-.77 4.24-.77h.57a8.51 8.51 0 0 1 2.06.34 8.5 8.5 0 0 1 5.34 4.63s-.9-1.9 0 0zm-52.62-2.81a4.35 4.35 0 0 1 .05.8v21.04c0 1.35-.2 1.95-.59 3.06a7.25 7.25 0 0 1-2.01 2.99c-.97.88-2 1.46-3.07 1.74-1.09.27-1.92.4-2.53.4-.95 0-1.44-.12-1.64-.42-.18-.25-.26-.7-.26-1.47 0-.42.01-.75.03-.99.02-.3.09-.53.21-.7.14-.18.36-.3.65-.36.25-.05.57-.07 1-.07a3.7 3.7 0 0 0 2.52-1.12c.68-.68 1.03-1 1.03-2.23v-20.6h-2.54v-2.61l.1-.1c.3-.27.68-.54 1.1-.78.38-.19.82-.37 1.31-.53a5.86 5.86 0 0 1 1.83-.26c.91 0 1.6.26 2.06.76.43.49.68.97.75 1.45m-2.3-9.96a2.9 2.9 0 1 1-.02 5.8 2.9 2.9 0 0 1 .01-5.8m9.73 0a2.9 2.9 0 1 1-.02 5.8 2.9 2.9 0 0 1 .02-5.8"/><path id="skpdb" d="M482.18 396.23a7.98 7.98 0 0 0 4.37-.66c1.03-.44 1.84-.85 2.43-1.23V380.1a19.14 19.14 0 0 0-4.81-.58 6.74 6.74 0 0 0-3.05.67 5.9 5.9 0 0 0-1.88 1.8 8.5 8.5 0 0 0-1.21 2.79 18.95 18.95 0 0 0-.35 4.5c.06 2 .48 3.65 1.28 4.97.62 1.06 1.69 1.72 3.22 1.98 1.53.27 0 0 0 0zm-.75 3.4a8.36 8.36 0 0 1-1.46-.29c-.44-.13-.84-.27-1.19-.42a8.18 8.18 0 0 1-4-4.05 15.5 15.5 0 0 1-1.34-6.74 14.72 14.72 0 0 1 2.65-8.51 7.56 7.56 0 0 1 2.51-2.2c.89-.45 1.65-.74 2.3-.89 1-.26 2.12-.4 3.36-.4 1.03 0 1.88.05 2.56.14.67.06 1.4.53 2.16 1.4 0-.37.02-.67.07-.9a.8.8 0 0 1 .26-.48c.13-.1.33-.16.6-.18a19.52 19.52 0 0 1 2.18 0c.28.02.5.07.65.16.14.09.24.24.28.46.05.22.07.54.07.95v19.44h2.51v1.94c-.02 0-.41.1-1.16.32-.76.23-1.75.3-2.99.2-.82-.06-1.4-.27-1.74-.64a2.52 2.52 0 0 1-.64-1.12c-.38.2-.77.4-1.17.57-.4.18-.8.36-1.22.53-1.23.5-2.62.75-4.15.75h-.57c-.18 0-.35-.01-.53-.04-.18-.03 0 0 0 0zm33.51-4.15v3.57c0 2-.39 3.57-1.17 4.72a8.21 8.21 0 0 1-4.66 3.33c-.61.19-1.22.35-1.83.48-.6.13-1.18.22-1.72.27a29.83 29.83 0 0 1-3.31-.05c-.66-.04-1.3-.14-1.92-.29-.8-.17-1.42-.32-1.88-.44a3.58 3.58 0 0 1-1-.37c-.2-.13-.3-.3-.3-.5 0-.21.05-.5.17-.84.15-.48.28-.86.4-1.15.12-.3.26-.51.42-.66a.89.89 0 0 1 .62-.22c.25 0 .58.06 1 .18.61.17 1.26.31 1.94.41.67.1 1.6.13 2.78.07 1.15-.03 2.01-.12 2.6-.27a6.05 6.05 0 0 0 2.8-1.34c.7-.63 1.03-1.6 1-2.93l-.04-1.45a3.98 3.98 0 0 1-2.21 1.36c-.41.1-.88.17-1.4.24-.5.08-1.09.12-1.74.12-2.97.06-5.13-.42-6.46-1.41-1.35-1-2.02-2.65-2.02-4.94v-13.8h-2.56v-2.15a5.92 5.92 0 0 1 4.07-1.5c.82 0 1.43.22 1.83.66.4.44.62.86.68 1.28l.03.33.02.41v13.62c0 1.39.36 2.33 1.08 2.85.72.51 1.76.8 3.11.86a17.5 17.5 0 0 0 2.85-.1c.43-.05.86-.13 1.28-.23l1.44-.34v-17.45c0-.67.07-1.1.22-1.3.14-.19.47-.29.97-.29h1.77c.53 0 .86.1.99.3.13.18.2.62.2 1.3zm-54 .56a6.42 6.42 0 0 0 2.9-.62 5.6 5.6 0 0 0 1.75-1.7 8.2 8.2 0 0 0 1.16-2.67c.26-1.07.37-2.56.34-4.4a9.82 9.82 0 0 0-1.23-4.8c-.57-.99-1.55-1.58-3-1.83a8.12 8.12 0 0 0-4.23.64c-.71.3-1.45.72-2.17 1.27v13.61a18.98 18.98 0 0 0 4.48.5s-.67 0 0 0zm9.64-15.11a15.87 15.87 0 0 1 1.38 6.86 15 15 0 0 1-.77 4.85 13.2 13.2 0 0 1-1.99 3.83 7.44 7.44 0 0 1-2.57 2.28c-.9.45-1.7.76-2.36.9-1.04.27-2.2.41-3.42.41-1.1 0-1.98-.05-2.64-.13-.55-.03-1.13-.33-1.75-.92v7.08c0 .44-.03.76-.08 1-.06.27-.18.49-.37.64-.2.14-.44.22-.78.24a19.67 19.67 0 0 1-2.21 0c-.34-.02-.6-.08-.79-.2a.95.95 0 0 1-.43-.67 5.3 5.3 0 0 1-.07-1v-25.77h-2.56v-2.61l.1-.1c.32-.27.69-.54 1.12-.78.38-.2.81-.37 1.31-.53a5.88 5.88 0 0 1 1.84-.26c.91 0 1.6.25 2.07.76.3.34.52.68.65 1.02.7-.45 1.39-.82 2.05-1.1 1.27-.51 2.7-.77 4.26-.77h.57a8.6 8.6 0 0 1 2.07.34c.45.14.86.28 1.22.43a8.52 8.52 0 0 1 4.15 4.2s-.9-1.9 0 0z"/></defs><g><g transform="translate(-384 -368)"><use fill="#fff" xlink:href="#skpda"/></g><g transform="translate(-384 -368)"><use fill="#7c878e" xlink:href="#skpdb"/><use fill="#fff" fill-opacity=".5" xlink:href="#skpdb"/></g></g></svg>